<?xml version="1.0" standalone="no"?>
<!DOCTYPE svg PUBLIC "-//W3C//DTD SVG 20010904//EN"
 "http://www.w3.org/TR/2001/REC-SVG-20010904/DTD/svg10.dtd">
<svg version="1.0" xmlns="http://www.w3.org/2000/svg"
 width="212.000000pt" height="118.000000pt" viewBox="0 0 212.000000 118.000000"
 preserveAspectRatio="xMidYMid meet">
<metadata>
Created by potrace 1.10, written by Peter Selinger 2001-2011
</metadata>
<g transform="translate(0.000000,118.000000) scale(0.100000,-0.100000)"
fill="#000000" stroke="none">
<path d="M730 695 c0 -258 1 -265 20 -265 19 0 20 7 20 265 0 258 -1 265 -20
265 -19 0 -20 -7 -20 -265z"/>
<path d="M407 718 c-69 -41 -77 -74 -77 -311 0 -203 0 -207 21 -207 20 0 20 4
17 140 -2 77 -2 140 -1 140 1 0 13 -11 26 -24 44 -44 138 -46 191 -5 80 63 77
200 -6 262 -41 31 -123 33 -171 5z m150 -34 c86 -55 57 -211 -43 -230 -80 -15
-144 40 -144 124 0 69 25 104 90 126 21 7 71 -3 97 -20z"/>
<path d="M941 722 c-55 -28 -71 -70 -71 -189 0 -96 1 -103 20 -103 19 0 20 7
20 108 0 124 9 145 69 163 33 10 45 9 77 -7 54 -26 64 -53 64 -166 0 -93 1
-98 21 -98 21 0 22 3 17 110 -4 79 -10 117 -22 135 -40 61 -127 82 -195 47z"/>
<path d="M1321 722 c-62 -31 -74 -58 -79 -182 -4 -107 -4 -110 17 -110 20 0
21 5 21 98 0 113 10 140 64 166 32 16 44 17 77 7 60 -18 69 -39 69 -163 0
-101 1 -108 20 -108 19 0 20 7 20 103 0 80 -4 110 -18 136 -35 65 -121 89
-191 53z"/>
<path d="M1694 733 c-12 -2 -32 -15 -45 -29 -22 -24 -24 -35 -27 -150 -4 -120
-3 -124 17 -124 20 0 21 5 21 118 0 135 8 152 73 152 39 0 52 22 21 34 -16 6
-25 6 -60 -1z"/>
</g>
</svg>
